<svg width="20" height="14" viewBox="0 0 20 14" fill="none" xmlns="http://www.w3.org/2000/svg">
<g clip-path="url(#clip0_10_213)">
<path d="M19.778 9.86289L16.5987 12.956C16.3027 13.2439 15.8229 13.2439 15.5269 12.956L12.3475 9.86289C12.0516 9.57495 12.0516 9.10812 12.3475 8.82022L12.6893 8.48774C12.9912 8.19399 13.4829 8.20081 13.7761 8.50285L15.0523 9.81742V4.22277H9.13008C8.92909 4.22276 8.73633 4.14509 8.59419 4.00684L8.08896 3.51533C7.61155 3.05084 7.94968 2.2567 8.62485 2.2567H16.3154C16.7339 2.2567 17.0732 2.58679 17.0732 2.99398V9.81742L18.3494 8.50285C18.6426 8.20084 19.1343 8.19399 19.4363 8.48774L19.7781 8.82022C20.074 9.10812 20.074 9.57498 19.778 9.86289ZM11.4058 10.3369C11.3354 10.2685 11.2519 10.2142 11.1599 10.1771C11.068 10.1401 10.9694 10.121 10.8699 10.121H4.94769V4.52632L6.2239 5.84088C6.51713 6.14289 7.00878 6.14974 7.31075 5.85597L7.65247 5.52351C7.94844 5.23558 7.94844 4.76876 7.65247 4.48085L4.47312 1.38783C4.17715 1.09989 3.6973 1.09989 3.40137 1.38783L0.221978 4.48088C-0.0739927 4.76882 -0.0739927 5.23564 0.221978 5.52355L0.563704 5.856C0.865642 6.14974 1.35733 6.14292 1.65055 5.84091L2.92676 4.52632V11.3498C2.92676 11.757 3.26606 12.0871 3.68461 12.0871H11.3751C12.0503 12.0871 12.3884 11.293 11.911 10.8285L11.4058 10.3369Z" fill="white"/>
</g>
<defs>
<clipPath id="clip0_10_213">
<rect width="20" height="13" fill="white" transform="translate(0 0.671875)"/>
</clipPath>
</defs>
</svg>
